<svg xmlns="http://www.w3.org/2000/svg" xmlns:xlink="http://www.w3.org/1999/xlink" width="303" height="102" viewBox="0 0 303 102">
  <defs>
    <filter id="navi" x="94" y="1" width="209" height="101" filterUnits="userSpaceOnUse">
      <feOffset dy="3" input="SourceAlpha"/>
      <feGaussianBlur stdDeviation="3" result="blur"/>
      <feFlood flood-opacity="0.161"/>
      <feComposite operator="in" in2="blur"/>
      <feComposite in="SourceGraphic"/>
    </filter>
  </defs>
  <g id="logo_anavi_blanc_2" transform="translate(-178 -28)">
    <g transform="matrix(1, 0, 0, 1, 178, 28)" filter="url(#navi)">
      <text id="navi-2" data-name="navi" transform="translate(103 73)" fill="#fff" font-size="68" font-family="MontserratAlternates-Bold, Montserrat Alternates" font-weight="700"><tspan x="0" y="0">NAVI</tspan></text>
    </g>
    <g id="Groupe_12" data-name="Groupe 12" transform="translate(178 28)">
      <path id="Tracé_39" data-name="Tracé 39" d="M49.745,0A49.745,49.745,0,1,1,0,49.745,49.745,49.745,0,0,1,49.745,0Z" fill="#fff"/>
      <path id="Tracé_40" data-name="Tracé 40" d="M37.527,0A37.527,37.527,0,1,1,0,37.527,37.527,37.527,0,0,1,37.527,0Z" transform="translate(13.964 12.218)" fill="#c73434"/>
      <text id="A" transform="translate(37 67)" fill="#2d2b2b" font-size="41" font-family="MontserratAlternates-Bold, Montserrat Alternates" font-weight="700"><tspan x="0" y="0">A</tspan></text>
      <line id="Ligne_1" data-name="Ligne 1" transform="translate(12.993 12.251)" fill="none" stroke="#707070" stroke-width="1"/>
    </g>
  </g>
</svg>
