<svg xmlns="http://www.w3.org/2000/svg" width="570.939" height="364.464" viewBox="0 0 570.939 364.464">
  <g id="semi_yoyo" transform="translate(-200 -659.768)">
    <g id="Groupe_37" data-name="Groupe 37">
      <g id="Groupe_36" data-name="Groupe 36">
        <circle id="Ellipse_6" data-name="Ellipse 6" cx="45" cy="45" r="45" transform="translate(200 830)" fill="#c73434"/>
        <circle id="Ellipse_7" data-name="Ellipse 7" cx="45" cy="45" r="45" transform="translate(490 930)" fill="#c73434"/>
      </g>
      <path id="MetaballShape1" d="M265.941,914.831c45.929-24.147,206.735,31.3,228.019,78.627l20.1-58.289c-45.929,24.147-206.735-31.3-228.019-78.627Z" fill="#c73434"/>
    </g>
    <g id="Groupe_38" data-name="Groupe 38" transform="matrix(-0.259, 0.966, -0.966, -0.259, 1624.421, 704.697)">
      <g id="Groupe_36-2" data-name="Groupe 36">
        <circle id="Ellipse_6-2" data-name="Ellipse 6" cx="45" cy="45" r="45" transform="translate(200 830)" fill="#c73434"/>
        <circle id="Ellipse_7-2" data-name="Ellipse 7" cx="45" cy="45" r="45" transform="translate(490 930)" fill="#c73434"/>
      </g>
      <path id="MetaballShape1-2" data-name="MetaballShape1" d="M265.941,914.831c45.929-24.147,206.735,31.3,228.019,78.627l20.1-58.289c-45.929,24.147-206.735-31.3-228.019-78.627Z" fill="#c73434"/>
    </g>
  </g>
</svg>
